<?xml version="1.0" encoding="UTF-8"?>
<!DOCTYPE svg PUBLIC "-//W3C//DTD SVG 1.1//EN" "http://www.w3.org/Graphics/SVG/1.1/DTD/svg11.dtd">
<!-- Creator: CorelDRAW X6 -->
<svg xmlns="http://www.w3.org/2000/svg" xml:space="preserve" width="97.0977mm" height="32.7286mm" version="1.1" style="shape-rendering:geometricPrecision; text-rendering:geometricPrecision; image-rendering:optimizeQuality; fill-rule:evenodd; clip-rule:evenodd"
viewBox="0 0 7963 2684"
 xmlns:xlink="http://www.w3.org/1999/xlink">
 <defs>
  <style type="text/css">
   <![CDATA[
    .fil1 {fill:white}
    .fil2 {fill:#7688A1;fill-rule:nonzero}
    .fil0 {fill:url(#id0)}
   ]]>
  </style>
  <linearGradient id="id0" gradientUnits="userSpaceOnUse" x1="2251.58" y1="2358.97" x2="432.449" y2="325.066">
   <stop offset="0" style="stop-color:#CCFFCC"/>
   <stop offset="1" style="stop-color:#8DEAA2"/>
  </linearGradient>
 </defs>
 <g id="Layer_x0020_1">
  <metadata id="CorelCorpID_0Corel-Layer"/>
  <g id="_819832624">
   <g>
    <circle class="fil0" cx="1342" cy="1342" r="1342"/>
    <path class="fil1" d="M907 1249c-14,180 138,130 291,155 -21,137 -338,729 -274,820 23,26 27,48 80,21 23,-12 42,-40 63,-69l530 -762c79,-113 187,-240 181,-337 -12,-9 -22,-15 -35,-26 -29,-24 -10,-7 -28,-27l-224 -11c20,-179 194,-411 203,-499 -55,-81 -103,-97 -230,-88 -384,27 -283,9 -311,143 -5,23 -25,69 -34,91 -110,263 -125,286 -212,587z"/>
   </g>
   <polygon class="fil2" points="3745,516 3745,826 4065,826 4065,890 3745,890 3745,1203 4100,1203 4100,1271 3662,1271 3662,450 4100,450 4100,516 "/>
   <polygon id="1" class="fil2" points="4370,409 4370,1271 4287,1271 4287,409 "/>
   <path id="2" class="fil2" d="M4869 1211c57,0 106,-14 144,-43 39,-29 62,-68 70,-116l86 0c-12,68 -44,122 -97,164 -53,42 -120,63 -200,63 -61,0 -114,-13 -161,-39 -47,-26 -84,-64 -110,-113 -26,-49 -40,-107 -40,-174 0,-67 13,-125 40,-174 26,-49 63,-87 110,-113 47,-26 101,-39 161,-39 62,0 116,13 161,39 45,26 80,61 104,104 24,43 36,91 36,142 0,22 -2,42 -5,59l-526 0c1,54 12,98 33,134 21,36 49,63 83,80 34,17 71,26 111,26zm3 -518c-41,0 -79,9 -113,26 -34,17 -62,43 -83,79 -21,35 -33,79 -34,132l449 0c3,-52 -5,-96 -26,-132 -20,-36 -47,-62 -81,-79 -34,-17 -71,-26 -112,-26z"/>
   <path id="3" class="fil2" d="M5645 627c81,0 148,21 201,64 53,43 86,99 97,170l-85 0c-9,-50 -32,-90 -71,-119 -39,-29 -87,-44 -143,-44 -41,0 -79,9 -113,28 -35,19 -62,47 -83,86 -21,38 -31,86 -31,141 0,56 10,103 31,141 21,38 48,67 83,86 35,19 72,28 113,28 57,0 104,-15 143,-44 39,-29 62,-69 71,-119l85 0c-12,71 -44,127 -97,170 -53,43 -120,64 -201,64 -61,0 -114,-13 -161,-39 -47,-26 -84,-64 -110,-113 -26,-49 -40,-107 -40,-174 0,-67 13,-125 40,-174 26,-49 63,-87 110,-113 47,-26 101,-39 161,-39z"/>
   <path id="4" class="fil2" d="M6424 1198l0 72 -76 0c-61,0 -107,-15 -137,-44 -30,-29 -45,-78 -45,-147l0 -374 -97 0 0 -71 97 0 0 -161 83 0 0 161 175 0 0 71 -175 0 0 375c0,45 8,76 24,93 16,17 45,25 86,25l65 0z"/>
   <path id="5" class="fil2" d="M6686 767c19,-46 48,-81 90,-106 41,-25 91,-37 150,-37l0 88 -27 0c-61,0 -112,16 -152,49 -40,33 -61,87 -61,161l0 348 -83 0 0 -636 83 0 0 132z"/>
   <path id="6" class="fil2" d="M7061 446c0,-17 6,-31 17,-41 11,-10 26,-15 44,-15 18,0 32,5 43,15 11,10 16,24 16,41 0,16 -5,29 -16,40 -11,10 -25,15 -43,15 -18,0 -32,-5 -44,-15 -11,-10 -17,-23 -17,-40zm101 189l0 636 -83 0 0 -636 83 0z"/>
   <path id="7" class="fil2" d="M7665 627c81,0 148,21 201,64 53,43 86,99 97,170l-85 0c-9,-50 -32,-90 -71,-119 -39,-29 -87,-44 -143,-44 -41,0 -79,9 -113,28 -35,19 -62,47 -83,86 -21,38 -31,86 -31,141 0,56 10,103 31,141 21,38 48,67 83,86 35,19 72,28 113,28 57,0 104,-15 143,-44 39,-29 62,-69 71,-119l85 0c-12,71 -44,127 -97,170 -53,43 -120,64 -201,64 -61,0 -114,-13 -161,-39 -47,-26 -84,-64 -110,-113 -26,-49 -40,-107 -40,-174 0,-67 13,-125 40,-174 26,-49 63,-87 110,-113 47,-26 101,-39 161,-39z"/>
   <polygon id="8" class="fil2" points="3812,1594 3812,1807 4103,1807 4103,1933 3812,1933 3812,2154 4138,2154 4138,2285 3648,2285 3648,1463 4138,1463 4138,1594 "/>
   <path id="9" class="fil2" d="M4550 1632c54,0 101,13 140,38 39,26 66,60 83,104l0 -134 163 0 0 645 -163 0 0 -135c-16,43 -44,78 -83,104 -39,26 -85,39 -140,39 -54,0 -103,-13 -147,-40 -43,-26 -77,-65 -102,-115 -24,-50 -37,-109 -37,-176 0,-68 12,-126 37,-176 24,-50 58,-88 102,-115 43,-26 92,-40 147,-40zm51 143c-51,0 -92,17 -123,50 -31,33 -47,79 -47,137 0,58 16,104 47,137 31,33 72,49 123,49 50,0 91,-17 123,-51 32,-34 48,-79 48,-136 0,-57 -16,-103 -48,-137 -32,-34 -73,-51 -123,-51z"/>
   <path id="10" class="fil2" d="M5286 1764c24,-41 56,-74 95,-97 40,-24 84,-36 133,-36l0 176 -48 0c-120,0 -180,56 -180,168l0 311 -164 0 0 -645 164 0 0 123z"/>
   <path id="11" class="fil2" d="M5988 2144l0 141 -86 0c-72,0 -127,-17 -166,-52 -38,-35 -58,-93 -58,-175l0 -279 -90 0 0 -139 90 0 0 -159 164 0 0 159 144 0 0 139 -144 0 0 282c0,31 6,53 19,65 12,12 33,19 63,19l64 0z"/>
   <path id="12" class="fil2" d="M6527 1631c74,0 134,24 178,73 44,49 66,118 66,206l0 375 -163 0 0 -356c0,-51 -13,-91 -40,-119 -26,-28 -62,-42 -108,-42 -47,0 -84,15 -112,45 -28,30 -42,74 -42,130l0 342 -164 0 0 -861 164 0 0 346c17,-43 45,-77 84,-102 39,-24 84,-37 136,-37z"/>
  </g>
 </g>
</svg>
